<?xml version="1.0" encoding="UTF-8" standalone="no"?>
<svg
   xmlns="http://www.w3.org/2000/svg"
   viewBox="0 0 381.5625 372.1875"
   version="1.1"
   id="svg2">
  <metadata
     id="metadata8">
    <rdf:RDF>
      <cc:Work
         rdf:about="">
        <dc:format>image/svg+xml</dc:format>
        <dc:type
           rdf:resource="http://purl.org/dc/dcmitype/StillImage" />
        <dc:title></dc:title>
      </cc:Work>
    </rdf:RDF>
  </metadata>
  <defs
     id="defs6" />
  <path
     id="path3338"
     d="M 169.22392,360.40707 C 73.476833,349.86331 1.4434535,267.71839 6.5358375,174.88194 11.37721,86.621572 79.856299,16.098745 170.25982,6.2716688 211.01955,1.8409869 255.20125,12.585564 290.06185,35.406408 366.58586,85.501448 393.11793,181.09519 352.8218,261.5274 c -25.66007,51.2182 -75.42838,87.44193 -133.87466,97.44033 -11.21938,1.91929 -38.25739,2.70197 -49.72322,1.43934 z m 47.65142,-17.62917 c 34.77733,-6.01126 64.0156,-20.88693 89.14758,-45.35591 C 367.04376,238.01093 371.5984,145.6994 316.736,80.294589 298.79624,58.907505 270.21593,39.466504 243.80874,30.687738 182.26427,10.227994 117.47627,24.755313 71.789128,69.259441 47.462919,92.955762 32.660108,120.01406 25.661986,153.57598 c -3.398159,16.29704 -3.4453,42.7781 -0.105303,59.18516 6.796954,33.38931 21.811706,60.88428 46.2325,84.66085 21.834463,21.25844 45.983777,34.87974 74.644987,42.10308 9.02945,2.27566 13.66833,3.10641 29.00521,5.19438 6.2463,0.85038 32.36373,-0.37339 41.43601,-1.94155 z M 87.985801,273.87371 c -4.6328,-2.46574 -7.590757,-7.7001 -6.999172,-12.38559 0.249356,-1.97498 8.849008,-21.50062 19.110321,-43.39031 10.26131,-21.88969 29.90352,-63.86592 43.64936,-93.28052 13.74584,-29.414589 26.96623,-57.3408 29.37863,-62.058232 5.50291,-10.760926 9.09317,-13.496478 16.9119,-12.885854 6.57173,0.513235 10.95288,3.4197 13.7305,9.108849 1.82834,3.744844 55.05243,118.127957 82.7419,177.819437 5.40045,11.642 10.06534,22.64605 10.36645,24.45344 0.72826,4.37162 -1.3347,8.91994 -5.29337,11.67059 -2.88493,2.00457 -4.74013,2.28128 -17.37144,2.59103 -16.05313,0.39367 -20.05449,-0.66946 -23.54759,-6.2564 -2.52854,-4.04417 -29.1264,-62.38726 -29.1264,-63.88949 0,-1.64377 1.86248,-2.02773 8.65264,-1.78372 3.48103,0.12508 6.64509,0.80292 7.43002,1.59173 0.7519,0.75561 6.0129,11.59077 11.69108,24.07809 15.17558,33.37376 12.96488,29.91985 19.57576,30.58448 5.98517,0.60173 8.58911,0.13061 8.58911,-1.55397 0,-1.37305 -27.71564,-63.21961 -29.63186,-66.12254 l -1.50428,-2.27889 -57.72,0.26073 -57.72001,0.26073 -1.84712,3.53177 c -3.92485,7.50445 -28.71567,62.96639 -28.71567,64.2426 0,0.88184 1.34227,1.35216 3.88463,1.36118 2.13654,0.008 4.86398,0.26988 6.06096,0.58288 1.24722,0.32615 2.83053,-0.0681 3.70865,-0.9235 0.84277,-0.82094 7.04418,-13.57058 13.78094,-28.33251 10.38382,-22.75362 12.57914,-26.84122 14.41958,-26.84866 1.19405,-0.005 4.60847,-0.29398 7.5876,-0.64257 4.47393,-0.52349 5.53114,-0.34307 6.07469,1.03669 0.4052,1.02857 -5.01394,14.0822 -14.10255,33.97033 -12.21982,26.73997 -15.31607,32.68582 -17.98752,34.54206 -2.90406,2.01785 -4.67801,2.27176 -17.72953,2.53773 -12.579246,0.25633 -14.972833,0.0452 -18.048209,-1.59159 z m 64.866379,-99.90502 c 0.68121,-0.42185 8.72376,-17.08115 17.87235,-37.02066 9.14858,-19.93951 17.05889,-36.66776 17.57847,-37.173879 1.23773,-1.20568 1.3808,-0.92166 19.77114,39.245619 8.60806,18.80133 16.20752,34.52887 16.88767,34.95009 1.82969,1.13312 12.92376,0.9598 13.66819,-0.21354 0.92343,-1.45544 -47.77565,-107.404334 -49.53392,-107.765148 -1.02155,-0.20963 -8.81414,15.812985 -25.93948,53.334998 -13.4636,29.49905 -24.22148,54.04094 -23.90641,54.53754 0.69472,1.09498 11.86412,1.18119 13.60199,0.10494 z m 52.66483,-0.26881 c 0.90396,-1.42478 -15.05448,-36.26913 -16.61098,-36.26913 -1.5565,0 -17.51495,34.84435 -16.61098,36.26913 0.42812,0.67478 6.53155,1.06672 16.61098,1.06672 10.07942,0 16.18286,-0.39194 16.61098,-1.06672 z"
     style="fill:#e11326" />
</svg>
